<mxfile host="65bd71144e">
    <diagram id="KbJQMDzMe3jMYKvD7peT" name="Page-1">
        <mxGraphModel dx="2055" dy="1187" grid="1" gridSize="10" guides="1" tooltips="1" connect="1" arrows="1" fold="1" page="1" pageScale="1" pageWidth="827" pageHeight="1169" math="0" shadow="0">
            <root>
                <mxCell id="0"/>
                <mxCell id="1" parent="0"/>
                <mxCell id="4" value="Docker-Compose" style="swimlane;" parent="1" vertex="1">
                    <mxGeometry x="97" y="110" width="751" height="560" as="geometry"/>
                </mxCell>
                <mxCell id="3" value="" style="sketch=0;aspect=fixed;html=1;points=[];align=center;image;fontSize=12;image=img/lib/mscae/Docker.svg;" parent="4" vertex="1">
                    <mxGeometry x="628" y="29.99999999999997" width="89" height="72.98" as="geometry"/>
                </mxCell>
                <mxCell id="15" style="edgeStyle=none;html=1;fontSize=26;" edge="1" parent="4" source="2" target="11">
                    <mxGeometry relative="1" as="geometry"/>
                </mxCell>
                <mxCell id="16" style="edgeStyle=none;html=1;fontSize=26;" edge="1" parent="4" source="2" target="12">
                    <mxGeometry relative="1" as="geometry"/>
                </mxCell>
                <mxCell id="17" style="edgeStyle=none;html=1;fontSize=26;" edge="1" parent="4" source="2" target="13">
                    <mxGeometry relative="1" as="geometry"/>
                </mxCell>
                <mxCell id="18" style="edgeStyle=none;html=1;fontSize=26;" edge="1" parent="4" source="2" target="14">
                    <mxGeometry relative="1" as="geometry"/>
                </mxCell>
                <mxCell id="2" value="Routing" style="shape=image;verticalLabelPosition=bottom;labelBackgroundColor=#ffffff;verticalAlign=top;aspect=fixed;imageAspect=0;image=https://upload.wikimedia.org/wikipedia/commons/thumb/1/1b/Traefik.logo.png/1200px-Traefik.logo.png;" parent="4" vertex="1">
                    <mxGeometry x="90" y="200" width="87" height="120" as="geometry"/>
                </mxCell>
                <mxCell id="20" style="edgeStyle=none;html=1;fontSize=26;" edge="1" parent="4" source="11" target="19">
                    <mxGeometry relative="1" as="geometry"/>
                </mxCell>
                <mxCell id="11" value="&lt;font style=&quot;font-size: 26px&quot;&gt;/&lt;/font&gt;&lt;br&gt;Login page" style="ellipse;shape=cloud;whiteSpace=wrap;html=1;" vertex="1" parent="4">
                    <mxGeometry x="250" y="80" width="180" height="102.98" as="geometry"/>
                </mxCell>
                <mxCell id="21" style="edgeStyle=none;html=1;fontSize=26;" edge="1" parent="4" source="12" target="19">
                    <mxGeometry relative="1" as="geometry"/>
                </mxCell>
                <mxCell id="12" value="&lt;font style=&quot;font-size: 26px&quot;&gt;/chat/1/&lt;/font&gt;&lt;br&gt;Group-specific page" style="ellipse;shape=cloud;whiteSpace=wrap;html=1;" vertex="1" parent="4">
                    <mxGeometry x="250" y="200" width="180" height="100" as="geometry"/>
                </mxCell>
                <mxCell id="22" style="edgeStyle=none;html=1;fontSize=26;" edge="1" parent="4" source="13" target="19">
                    <mxGeometry relative="1" as="geometry"/>
                </mxCell>
                <mxCell id="13" value="&lt;font style=&quot;font-size: 26px&quot;&gt;/chat/2/&lt;/font&gt;&lt;br&gt;Group-specific page" style="ellipse;shape=cloud;whiteSpace=wrap;html=1;" vertex="1" parent="4">
                    <mxGeometry x="250" y="310" width="180" height="100" as="geometry"/>
                </mxCell>
                <mxCell id="23" style="edgeStyle=none;html=1;fontSize=26;" edge="1" parent="4" source="14" target="19">
                    <mxGeometry relative="1" as="geometry"/>
                </mxCell>
                <mxCell id="14" value="&lt;font style=&quot;font-size: 26px&quot;&gt;/chat/.../&lt;/font&gt;&lt;br&gt;Group-specific page" style="ellipse;shape=cloud;whiteSpace=wrap;html=1;" vertex="1" parent="4">
                    <mxGeometry x="250" y="410" width="180" height="100" as="geometry"/>
                </mxCell>
                <mxCell id="19" value="Postgres Database" style="shape=image;verticalLabelPosition=bottom;labelBackgroundColor=#ffffff;verticalAlign=top;aspect=fixed;imageAspect=0;image=https://upload.wikimedia.org/wikipedia/commons/thumb/b/ba/Database-postgres.svg/1200px-Database-postgres.svg.png;" vertex="1" parent="4">
                    <mxGeometry x="563" y="160" width="147" height="207.72" as="geometry"/>
                </mxCell>
                <mxCell id="38" value="" style="rounded=0;whiteSpace=wrap;html=1;fontSize=26;dashed=1;fillColor=none;" vertex="1" parent="4">
                    <mxGeometry x="243" y="410" width="207" height="105.5" as="geometry"/>
                </mxCell>
                <mxCell id="8" style="edgeStyle=none;html=1;" parent="1" source="5" target="2" edge="1">
                    <mxGeometry relative="1" as="geometry"/>
                </mxCell>
                <mxCell id="5" value="Client 1" style="verticalLabelPosition=bottom;html=1;verticalAlign=top;align=center;strokeColor=none;fillColor=#00BEF2;shape=mxgraph.azure.computer;pointerEvents=1;" parent="1" vertex="1">
                    <mxGeometry x="10" y="200" width="50" height="45" as="geometry"/>
                </mxCell>
                <mxCell id="9" style="edgeStyle=none;html=1;" parent="1" source="6" target="2" edge="1">
                    <mxGeometry relative="1" as="geometry"/>
                </mxCell>
                <mxCell id="6" value="Clinet 2" style="verticalLabelPosition=bottom;html=1;verticalAlign=top;align=center;strokeColor=none;fillColor=#00BEF2;shape=mxgraph.azure.computer;pointerEvents=1;" parent="1" vertex="1">
                    <mxGeometry x="10" y="320" width="50" height="45" as="geometry"/>
                </mxCell>
                <mxCell id="10" style="edgeStyle=none;html=1;" parent="1" source="7" target="2" edge="1">
                    <mxGeometry relative="1" as="geometry"/>
                </mxCell>
                <mxCell id="7" value="Client 3" style="verticalLabelPosition=bottom;html=1;verticalAlign=top;align=center;strokeColor=none;fillColor=#00BEF2;shape=mxgraph.azure.computer;pointerEvents=1;" parent="1" vertex="1">
                    <mxGeometry x="10" y="450" width="50" height="45" as="geometry"/>
                </mxCell>
                <mxCell id="39" value="Docker-Compose" style="swimlane;" vertex="1" parent="1">
                    <mxGeometry x="80" y="770" width="840" height="600" as="geometry"/>
                </mxCell>
                <mxCell id="24" value="&lt;span style=&quot;font-size: 26px&quot;&gt;&amp;lt;URL&amp;gt;&lt;/span&gt;" style="ellipse;shape=cloud;whiteSpace=wrap;html=1;spacing=0;spacingTop=-300;" vertex="1" parent="39">
                    <mxGeometry y="20" width="510" height="590" as="geometry"/>
                </mxCell>
                <mxCell id="27" value="Replica 1" style="shape=image;verticalLabelPosition=bottom;labelBackgroundColor=#ffffff;verticalAlign=top;aspect=fixed;imageAspect=0;image=https://packer.searates.com/images/main-container.png;" vertex="1" parent="39">
                    <mxGeometry x="270.87" y="170" width="106.62" height="74" as="geometry"/>
                </mxCell>
                <mxCell id="28" value="Replica 2" style="shape=image;verticalLabelPosition=bottom;labelBackgroundColor=#ffffff;verticalAlign=top;aspect=fixed;imageAspect=0;image=https://packer.searates.com/images/main-container.png;" vertex="1" parent="39">
                    <mxGeometry x="270.87" y="290" width="106.62" height="74" as="geometry"/>
                </mxCell>
                <mxCell id="29" value="Replica ..." style="shape=image;verticalLabelPosition=bottom;labelBackgroundColor=#ffffff;verticalAlign=top;aspect=fixed;imageAspect=0;image=https://packer.searates.com/images/main-container.png;" vertex="1" parent="39">
                    <mxGeometry x="270.87" y="400" width="106.62" height="74" as="geometry"/>
                </mxCell>
                <mxCell id="31" style="edgeStyle=none;html=1;fontSize=26;" edge="1" parent="39" source="30" target="27">
                    <mxGeometry relative="1" as="geometry"/>
                </mxCell>
                <mxCell id="32" style="edgeStyle=none;html=1;fontSize=26;" edge="1" parent="39" source="30" target="28">
                    <mxGeometry relative="1" as="geometry"/>
                </mxCell>
                <mxCell id="33" style="edgeStyle=none;html=1;fontSize=26;" edge="1" parent="39" source="30" target="29">
                    <mxGeometry relative="1" as="geometry"/>
                </mxCell>
                <mxCell id="30" value="Load balancer" style="shape=image;verticalLabelPosition=bottom;labelBackgroundColor=#ffffff;verticalAlign=top;aspect=fixed;imageAspect=0;image=https://upload.wikimedia.org/wikipedia/commons/thumb/1/1b/Traefik.logo.png/1200px-Traefik.logo.png;" vertex="1" parent="39">
                    <mxGeometry x="110" y="267" width="87" height="120" as="geometry"/>
                </mxCell>
                <mxCell id="34" value="Postgres Database" style="shape=image;verticalLabelPosition=bottom;labelBackgroundColor=#ffffff;verticalAlign=top;aspect=fixed;imageAspect=0;image=https://upload.wikimedia.org/wikipedia/commons/thumb/b/ba/Database-postgres.svg/1200px-Database-postgres.svg.png;" vertex="1" parent="39">
                    <mxGeometry x="681.35" y="200" width="147" height="207.72" as="geometry"/>
                </mxCell>
                <mxCell id="35" style="edgeStyle=none;html=1;fontSize=26;" edge="1" parent="39" source="27" target="34">
                    <mxGeometry relative="1" as="geometry"/>
                </mxCell>
                <mxCell id="36" style="edgeStyle=none;html=1;fontSize=26;" edge="1" parent="39" source="28" target="34">
                    <mxGeometry relative="1" as="geometry"/>
                </mxCell>
                <mxCell id="37" style="edgeStyle=none;html=1;fontSize=26;" edge="1" parent="39" source="29" target="34">
                    <mxGeometry relative="1" as="geometry"/>
                </mxCell>
                <mxCell id="40" value="" style="sketch=0;aspect=fixed;html=1;points=[];align=center;image;fontSize=12;image=img/lib/mscae/Docker.svg;" vertex="1" parent="39">
                    <mxGeometry x="548" y="39.99999999999997" width="89" height="72.98" as="geometry"/>
                </mxCell>
                <mxCell id="56" value="" style="endArrow=none;html=1;fontSize=26;entryX=0;entryY=1;entryDx=0;entryDy=0;exitX=0;exitY=0;exitDx=0;exitDy=0;" edge="1" parent="1" source="39" target="38">
                    <mxGeometry width="50" height="50" relative="1" as="geometry">
                        <mxPoint x="950" y="820" as="sourcePoint"/>
                        <mxPoint x="1000" y="770" as="targetPoint"/>
                    </mxGeometry>
                </mxCell>
                <mxCell id="57" value="" style="endArrow=none;html=1;fontSize=26;entryX=1;entryY=1;entryDx=0;entryDy=0;exitX=1;exitY=0;exitDx=0;exitDy=0;" edge="1" parent="1" source="39" target="38">
                    <mxGeometry width="50" height="50" relative="1" as="geometry">
                        <mxPoint x="950" y="820" as="sourcePoint"/>
                        <mxPoint x="1000" y="770" as="targetPoint"/>
                    </mxGeometry>
                </mxCell>
            </root>
        </mxGraphModel>
    </diagram>
</mxfile>
